<svg width="25" height="26" viewBox="0 0 25 26" fill="none" xmlns="http://www.w3.org/2000/svg">
<path fill-rule="evenodd" clip-rule="evenodd" d="M1.5661 13.0071C1.31472 13.043 1.08072 12.8687 1.05427 12.6161C0.790324 10.0962 1.35889 7.55455 2.68101 5.37818C4.00425 3.19995 6.00537 1.51431 8.37565 0.571742C8.60982 0.478621 8.87105 0.603307 8.95609 0.840529C9.04166 1.07921 8.91645 1.34106 8.68119 1.43561C6.51274 2.30709 4.68229 3.85444 3.46959 5.8507C2.25764 7.84572 1.73273 10.1738 1.96645 12.4839C1.99208 12.7372 1.81817 12.971 1.5661 13.0071ZM23.9469 12.6028C23.9207 12.8554 23.6869 13.03 23.4355 12.9944C23.1834 12.9586 23.0092 12.7251 23.0345 12.4717C23.265 10.167 22.7406 7.84526 21.5326 5.8547C20.3238 3.86291 18.5 2.31737 16.3388 1.44375C16.1037 1.34872 15.979 1.08661 16.065 0.848102C16.1506 0.611053 16.412 0.486894 16.646 0.580482C19.0085 1.52543 21.0024 3.20912 22.3214 5.38252C23.6393 7.55405 24.2073 10.0889 23.9469 12.6028ZM19.9803 15.6005C20.0271 14.5818 20.0108 13.3598 19.9251 11.8965C19.9251 7.79967 17.7134 4.39875 13.9384 3.74241V3.46919C13.9384 2.65778 13.2806 2 12.4692 2C11.6578 2 11 2.65778 11 3.46919V3.78409C7.35912 4.53215 5.23318 7.87986 5.23318 11.8965C5.17316 12.6854 5.13694 13.4029 5.12317 14.0553L4.9513 16.6157C4.92549 17.0002 4.68095 17.3357 4.32275 17.478L3.0912 17.9673C2.71038 18.1186 2.4604 18.4869 2.4604 18.8966V19.1362C2.4604 20.2407 3.35583 21.1362 4.4604 21.1362H21.0291C22.1336 21.1362 23.0291 20.2407 23.0291 19.1362V18.9402C23.0291 18.509 22.7527 18.1264 22.3434 17.9909L20.7291 17.4565C20.3431 17.3287 20.0729 16.9798 20.0457 16.5741L19.9803 15.6005ZM9.02159 22.1089C9.00732 22.2373 8.99999 22.3678 8.99999 22.5C8.99999 24.433 10.567 26 12.5 26C14.433 26 16 24.433 16 22.5C16 22.3678 15.9927 22.2373 15.9784 22.1089H9.02159ZM22.0485 11.4997C22.0525 11.7708 21.8241 11.9832 21.553 11.9738C21.2825 11.9644 21.072 11.7375 21.0666 11.4669C21.0376 10.0341 20.6717 8.62671 19.9967 7.36375C19.3226 6.1024 18.3621 5.02636 17.1982 4.22367C16.9747 4.06956 16.8984 3.76955 17.0362 3.53566C17.1771 3.29651 17.4873 3.21807 17.7165 3.37474C19.0244 4.26909 20.1032 5.47305 20.8586 6.88638C21.6171 8.30562 22.0244 9.88901 22.0485 11.4997ZM3.44809 12.0118C3.17708 12.0222 2.94773 11.8108 2.95072 11.5396C2.96849 9.9299 3.36896 8.34587 4.12097 6.92425C4.86985 5.50852 5.94272 4.30045 7.24573 3.40053C7.47412 3.24279 7.78473 3.3198 7.92671 3.5583C8.06555 3.79152 7.99067 4.09184 7.76795 4.24697C6.60838 5.05461 5.65323 6.13431 4.98486 7.39782C4.31565 8.66293 3.95582 10.071 3.9325 11.5029C3.9281 11.7736 3.71858 12.0013 3.44809 12.0118Z" fill="white"/>
</svg>
