<svg width="390" height="390" viewBox="0 0 390 390" fill="none" xmlns="http://www.w3.org/2000/svg">
<path d="M0 0H390V390H0V0Z" fill="url(#paint0_linear_159_641)"/>
<rect y="235" width="390" height="109" fill="url(#paint1_linear_159_641)"/>
<path fill-rule="evenodd" clip-rule="evenodd" d="M0 235V39.5404L41.791 59.8952C49.5026 63.6512 54.3959 71.4773 54.3959 80.0549C54.3959 90.5798 61.7158 99.6884 71.9941 101.953L85.6523 104.963C97.2639 107.522 106.672 116.002 110.419 127.287C114.012 138.109 122.827 146.385 133.855 149.289L143.352 151.789C153.734 154.523 162.136 162.138 165.874 172.202C168.737 179.911 174.378 186.273 181.689 190.039L187.145 192.85C195.209 197.004 201.956 203.322 206.629 211.096L221 235H0Z" fill="url(#paint2_linear_159_641)"/>
<path fill-rule="evenodd" clip-rule="evenodd" d="M0 265.915V235H221L204.599 239.315C201.193 240.211 197.715 240.805 194.205 241.091L175.63 242.605C172.116 242.891 168.671 243.741 165.427 245.123C161.78 246.676 157.883 247.556 153.923 247.721L122.652 249.023C118.38 249.201 114.188 250.24 110.328 252.079C106.403 253.949 102.135 254.993 97.7892 255.144L56.9815 256.566C55.5392 256.617 54.3959 257.8 54.3959 259.244C54.3959 260.643 53.3183 261.807 51.9227 261.915L0 265.915Z" fill="url(#paint3_linear_159_641)" fill-opacity="0.44"/>
<g filter="url(#filter0_d_159_641)">
<path fill-rule="evenodd" clip-rule="evenodd" d="M302 87.7635C288.059 92.375 278 105.513 278 121C278 136.487 288.059 149.625 302 154.236C298.541 155.381 294.843 156 291 156C271.67 156 256 140.33 256 121C256 101.67 271.67 86 291 86C294.843 86 298.541 86.6193 302 87.7635Z" fill="#FFE6D9"/>
</g>
<path fill-rule="evenodd" clip-rule="evenodd" d="M0 254.816V253.619C0.100415 253.646 0.211237 253.627 0.299351 253.563C4.24224 250.666 9.72458 250.813 13.5189 254.05C13.6494 254.161 13.6649 254.357 13.5535 254.488L13.3077 254.776C13.1964 254.906 13.0003 254.922 12.8698 254.811C9.2737 251.742 4.00426 251.738 0.407737 254.748C0.290853 254.846 0.133018 254.868 0 254.816Z" fill="#D6D6FF"/>
<path fill-rule="evenodd" clip-rule="evenodd" d="M34.129 244.132C34.3145 244.336 34.6301 244.351 34.8439 244.176C38.438 241.239 43.6518 241.267 47.219 244.311L47.3978 244.463C47.4296 244.49 47.4772 244.487 47.5043 244.455V244.455C47.5339 244.42 47.5872 244.419 47.6177 244.453L47.8557 244.716C47.9993 244.874 48.2438 244.885 48.4078 244.748C52.0043 241.738 57.2737 241.742 60.8698 244.811V244.811C61.0003 244.922 61.1964 244.906 61.3077 244.776L61.5536 244.488C61.6649 244.357 61.6494 244.161 61.5189 244.05V244.05C57.7246 240.813 52.2423 240.666 48.2994 243.563C48.1696 243.658 47.9905 243.654 47.8681 243.55V243.55C43.9181 240.18 38.1388 240.159 34.1713 243.434C33.9584 243.61 33.9436 243.927 34.129 244.132V244.132Z" fill="#D6D6FF"/>
<path fill-rule="evenodd" clip-rule="evenodd" d="M68.129 255.132C68.3145 255.336 68.6301 255.351 68.8439 255.176C72.438 252.239 77.6518 252.267 81.219 255.311L81.3978 255.463C81.4296 255.49 81.4772 255.487 81.5043 255.455V255.455C81.5339 255.42 81.5872 255.419 81.6177 255.453L81.8557 255.716C81.9993 255.874 82.2438 255.885 82.4078 255.748C86.0043 252.738 91.2737 252.742 94.8698 255.811V255.811C95.0003 255.922 95.1964 255.906 95.3077 255.776L95.5536 255.488C95.6649 255.357 95.6494 255.161 95.5189 255.05V255.05C91.7246 251.813 86.2423 251.666 82.2994 254.563C82.1696 254.658 81.9905 254.654 81.8681 254.55V254.55C77.9181 251.18 72.1388 251.159 68.1713 254.434C67.9584 254.61 67.9436 254.927 68.129 255.132V255.132Z" fill="#D6D6FF"/>
<path fill-rule="evenodd" clip-rule="evenodd" d="M96.129 269.132C96.3145 269.336 96.6301 269.351 96.8439 269.176C100.438 266.239 105.652 266.267 109.219 269.311L109.398 269.463C109.43 269.49 109.477 269.487 109.504 269.455V269.455C109.534 269.42 109.587 269.419 109.618 269.453L109.856 269.716C109.999 269.874 110.244 269.885 110.408 269.748C114.004 266.738 119.274 266.742 122.87 269.811V269.811C123 269.922 123.196 269.906 123.308 269.776L123.554 269.488C123.665 269.357 123.649 269.161 123.519 269.05V269.05C119.725 265.813 114.242 265.666 110.299 268.563C110.17 268.658 109.991 268.654 109.868 268.55V268.55C105.918 265.18 100.139 265.159 96.1713 268.434C95.9584 268.61 95.9436 268.927 96.129 269.132V269.132Z" fill="#D6D6FF"/>
<path fill-rule="evenodd" clip-rule="evenodd" d="M105.129 244.132C105.314 244.336 105.63 244.351 105.844 244.176C109.438 241.239 114.652 241.267 118.219 244.311L118.398 244.463C118.43 244.49 118.477 244.487 118.504 244.455V244.455C118.534 244.42 118.587 244.419 118.618 244.453L118.856 244.716C118.999 244.874 119.244 244.885 119.408 244.748C123.004 241.738 128.274 241.742 131.87 244.811V244.811C132 244.922 132.196 244.906 132.308 244.776L132.554 244.488C132.665 244.357 132.649 244.161 132.519 244.05V244.05C128.725 240.813 123.242 240.666 119.299 243.563C119.17 243.658 118.991 243.654 118.868 243.55V243.55C114.918 240.18 109.139 240.159 105.171 243.434C104.958 243.61 104.944 243.927 105.129 244.132V244.132Z" fill="#D6D6FF"/>
<path fill-rule="evenodd" clip-rule="evenodd" d="M143.129 259.132C143.314 259.336 143.63 259.351 143.844 259.176C147.438 256.239 152.652 256.267 156.219 259.311L156.398 259.463C156.43 259.49 156.477 259.487 156.504 259.455V259.455C156.534 259.42 156.587 259.419 156.618 259.453L156.856 259.716C156.999 259.874 157.244 259.885 157.408 259.748C161.004 256.738 166.274 256.742 169.87 259.811V259.811C170 259.922 170.196 259.906 170.308 259.776L170.554 259.488C170.665 259.357 170.649 259.161 170.519 259.05V259.05C166.725 255.813 161.242 255.666 157.299 258.563C157.17 258.658 156.991 258.654 156.868 258.55V258.55C152.918 255.18 147.139 255.159 143.171 258.434C142.958 258.61 142.944 258.927 143.129 259.132V259.132Z" fill="#D6D6FF"/>
<path fill-rule="evenodd" clip-rule="evenodd" d="M176.129 246.132C176.314 246.336 176.63 246.351 176.844 246.176C180.438 243.239 185.652 243.267 189.219 246.311L189.398 246.463C189.43 246.49 189.477 246.487 189.504 246.455V246.455C189.534 246.42 189.587 246.419 189.618 246.453L189.856 246.716C189.999 246.874 190.244 246.885 190.408 246.748C194.004 243.738 199.274 243.742 202.87 246.811V246.811C203 246.922 203.196 246.906 203.308 246.776L203.554 246.488C203.665 246.357 203.649 246.161 203.519 246.05V246.05C199.725 242.813 194.242 242.666 190.299 245.563C190.17 245.658 189.991 245.654 189.868 245.55V245.55C185.918 242.18 180.139 242.159 176.171 245.434C175.958 245.61 175.944 245.927 176.129 246.132V246.132Z" fill="#D6D6FF"/>
<path fill-rule="evenodd" clip-rule="evenodd" d="M167.129 280.132C167.314 280.336 167.63 280.351 167.844 280.176C171.438 277.239 176.652 277.267 180.219 280.311L180.398 280.463C180.43 280.49 180.477 280.487 180.504 280.455V280.455C180.534 280.42 180.587 280.419 180.618 280.453L180.856 280.716C180.999 280.874 181.244 280.885 181.408 280.748C185.004 277.738 190.274 277.742 193.87 280.811V280.811C194 280.922 194.196 280.906 194.308 280.776L194.554 280.488C194.665 280.357 194.649 280.161 194.519 280.05V280.05C190.725 276.813 185.242 276.666 181.299 279.563C181.17 279.658 180.991 279.654 180.868 279.55V279.55C176.918 276.18 171.139 276.159 167.171 279.434C166.958 279.61 166.944 279.927 167.129 280.132V280.132Z" fill="#D6D6FF"/>
<path fill-rule="evenodd" clip-rule="evenodd" d="M213.129 297.132C213.314 297.336 213.63 297.351 213.844 297.176C217.438 294.239 222.652 294.267 226.219 297.311L226.398 297.463C226.43 297.49 226.477 297.487 226.504 297.455V297.455C226.534 297.42 226.587 297.419 226.618 297.453L226.856 297.716C226.999 297.874 227.244 297.885 227.408 297.748C231.004 294.738 236.274 294.742 239.87 297.811V297.811C240 297.922 240.196 297.906 240.308 297.776L240.554 297.488C240.665 297.357 240.649 297.161 240.519 297.05V297.05C236.725 293.813 231.242 293.666 227.299 296.563C227.17 296.658 226.991 296.654 226.868 296.55V296.55C222.918 293.18 217.139 293.159 213.171 296.434C212.958 296.61 212.944 296.927 213.129 297.132V297.132Z" fill="#D6D6FF"/>
<path fill-rule="evenodd" clip-rule="evenodd" d="M202.129 264.132C202.314 264.336 202.63 264.351 202.844 264.176C206.438 261.239 211.652 261.267 215.219 264.311L215.398 264.463C215.43 264.49 215.477 264.487 215.504 264.455V264.455C215.534 264.42 215.587 264.419 215.618 264.453L215.856 264.716C215.999 264.874 216.244 264.885 216.408 264.748C220.004 261.738 225.274 261.742 228.87 264.811V264.811C229 264.922 229.196 264.906 229.308 264.776L229.554 264.488C229.665 264.357 229.649 264.161 229.519 264.05V264.05C225.725 260.813 220.242 260.666 216.299 263.563C216.17 263.658 215.991 263.654 215.868 263.55V263.55C211.918 260.18 206.139 260.159 202.171 263.434C201.958 263.61 201.944 263.927 202.129 264.132V264.132Z" fill="#D6D6FF"/>
<path fill-rule="evenodd" clip-rule="evenodd" d="M233.129 248.132C233.314 248.336 233.63 248.351 233.844 248.176C237.438 245.239 242.652 245.267 246.219 248.311L246.398 248.463C246.43 248.49 246.477 248.487 246.504 248.455V248.455C246.534 248.42 246.587 248.419 246.618 248.453L246.856 248.716C246.999 248.874 247.244 248.885 247.408 248.748C251.004 245.738 256.274 245.742 259.87 248.811V248.811C260 248.922 260.196 248.906 260.308 248.776L260.554 248.488C260.665 248.357 260.649 248.161 260.519 248.05V248.05C256.725 244.813 251.242 244.666 247.299 247.563C247.17 247.658 246.991 247.654 246.868 247.55V247.55C242.918 244.18 237.139 244.159 233.171 247.434C232.958 247.61 232.944 247.927 233.129 248.132V248.132Z" fill="#D6D6FF"/>
<path fill-rule="evenodd" clip-rule="evenodd" d="M247.129 276.132C247.314 276.336 247.63 276.351 247.844 276.176C251.438 273.239 256.652 273.267 260.219 276.311L260.398 276.463C260.43 276.49 260.477 276.487 260.504 276.455V276.455C260.534 276.42 260.587 276.419 260.618 276.453L260.856 276.716C260.999 276.874 261.244 276.885 261.408 276.748C265.004 273.738 270.274 273.742 273.87 276.811V276.811C274 276.922 274.196 276.906 274.308 276.776L274.554 276.488C274.665 276.357 274.649 276.161 274.519 276.05V276.05C270.725 272.813 265.242 272.666 261.299 275.563C261.17 275.658 260.991 275.654 260.868 275.55V275.55C256.918 272.18 251.139 272.159 247.171 275.434C246.958 275.61 246.944 275.927 247.129 276.132V276.132Z" fill="#D6D6FF"/>
<path fill-rule="evenodd" clip-rule="evenodd" d="M390 127.411V277.92L261.276 284.5L267.407 259.424C271.12 244.236 283.342 232.604 298.695 229.646L307.116 228.023C319.894 225.562 330.151 216.03 333.541 203.467C335.461 196.349 339.641 190.046 345.452 185.508L353.194 179.461C359.267 174.718 363.841 168.321 366.365 161.04L370.177 150.045C373.595 140.186 380.721 132.077 390 127.411Z" fill="url(#paint4_linear_159_641)"/>
<path fill-rule="evenodd" clip-rule="evenodd" d="M0 235V144.146L9.7498 149.628C14.0928 152.07 17.368 156.045 18.9339 160.775L24.5957 177.877C26.4383 183.442 30.6302 187.919 36.0628 190.123L53.5109 197.203C58.0155 199.03 61.7001 202.436 63.8761 206.783L78 235H0Z" fill="url(#paint5_linear_159_641)"/>
<path fill-rule="evenodd" clip-rule="evenodd" d="M0 235V247L15.7973 245.827C16.263 245.792 16.7207 245.687 17.1544 245.514L24.4444 242.605C26.4679 241.798 28.6096 241.327 30.7851 241.21L58.4513 239.727C59.8135 239.654 61.1647 239.442 62.4837 239.094L78 235H0Z" fill="url(#paint6_linear_159_641)" fill-opacity="0.48"/>
<path fill-rule="evenodd" clip-rule="evenodd" d="M390 227V390H195.542C202.773 314.724 281.662 251.568 390 227Z" fill="url(#paint7_linear_159_641)"/>
<path fill-rule="evenodd" clip-rule="evenodd" d="M281.069 270.585C280.922 269.996 280.792 269.401 280.679 268.803H282.439L282.162 268.382C281.214 266.943 280.542 265.342 280.181 263.66H281.247L280.996 263.221C280.074 261.617 279.294 259.938 278.664 258.203L277.751 255L276.839 258.203C276.209 259.938 275.429 261.617 274.507 263.221L274.256 263.66H275.322C274.961 265.342 274.289 266.943 273.341 268.382L273.064 268.803H274.824C274.337 271.383 273.528 273.892 272.418 276.27C275.238 274.337 278.123 272.442 281.069 270.585Z" fill="#292953"/>
<path fill-rule="evenodd" clip-rule="evenodd" d="M296.833 261.35C295.925 259.649 295.14 257.887 294.482 256.077L293.321 252L292.159 256.077C291.357 258.285 290.364 260.422 289.191 262.464L288.871 263.022H290.229C290.049 263.856 289.81 264.675 289.513 265.472C291.916 264.073 294.357 262.699 296.833 261.35Z" fill="#262650"/>
<path fill-rule="evenodd" clip-rule="evenodd" d="M313.864 252.744C313.952 252.702 314.04 252.661 314.129 252.62C313.662 251.221 313.29 249.791 313.015 248.339H314.844L314.556 247.901C313.571 246.406 312.874 244.743 312.498 242.995H313.606L313.344 242.54C312.387 240.874 311.577 239.13 310.922 237.328L309.974 234L309.027 237.328C308.372 239.13 307.562 240.874 306.605 242.54L306.343 242.995H307.451C307.075 244.743 306.378 246.406 305.393 247.901L305.105 248.339H306.934C306.392 251.204 305.469 253.985 304.19 256.607L304 256.996H305.128C307.996 255.545 310.909 254.128 313.864 252.744Z" fill="#24244C"/>
<path fill-rule="evenodd" clip-rule="evenodd" d="M342.821 223L343.744 226.242C344.382 227.997 345.171 229.696 346.104 231.32L346.358 231.764H345.279C345.645 233.466 346.324 235.087 347.284 236.543L347.565 236.969H345.783C345.944 237.823 346.141 238.67 346.371 239.506C343.656 240.459 340.967 241.438 338.306 242.443C338.985 240.67 339.505 238.838 339.858 236.969H338.076L338.357 236.543C339.317 235.087 339.996 233.466 340.362 231.764H339.283L339.537 231.32C340.47 229.696 341.259 227.997 341.897 226.242L342.821 223Z" fill="#212148"/>
<path fill-rule="evenodd" clip-rule="evenodd" d="M310 390H0V265C165.523 278.272 292.293 328.34 310 390Z" fill="url(#paint8_linear_159_641)"/>
<path fill-rule="evenodd" clip-rule="evenodd" d="M77.7438 235L79.6067 241.541C80.8944 245.083 82.4867 248.511 84.3678 251.786L84.8822 252.682H82.7042C83.4427 256.116 84.8135 259.387 86.7491 262.324L87.316 263.185H83.7211C84.5524 267.583 85.8404 271.88 87.5624 276.006C81.4927 274.943 75.3367 273.934 69.0993 272.98C70.2442 269.793 71.1365 266.518 71.7665 263.185H68.1716L68.7385 262.324C70.6742 259.387 72.045 256.116 72.7835 252.682H70.6054L71.1198 251.786C73.0009 248.511 74.5933 245.083 75.881 241.541L77.7438 235Z" fill="#22224A"/>
<path fill-rule="evenodd" clip-rule="evenodd" d="M39 197L41.7474 206.646C43.6466 211.871 45.9951 216.927 48.7695 221.758L49.5282 223.078H46.3158C47.405 228.144 49.4267 232.967 52.2816 237.3L53.1176 238.569H47.8157C49.3859 246.877 52.0608 254.938 55.7703 262.539L56.3205 263.667L43.3137 263.667V269.411C40.7115 269.088 38.097 268.774 35.4706 268.47V263.667L21.6795 263.667L22.2298 262.539C25.9392 254.938 28.6142 246.877 30.1844 238.569H24.8824L25.7184 237.3C28.5733 232.967 30.595 228.144 31.6842 223.078H28.4719L29.2305 221.758C32.0049 216.927 34.3534 211.871 36.2525 206.647L39 197Z" fill="#22224A"/>
<path fill-rule="evenodd" clip-rule="evenodd" d="M116.744 232L118.607 238.541C119.894 242.083 121.487 245.511 123.368 248.786L123.882 249.682H121.704C122.443 253.116 123.813 256.387 125.749 259.324L126.316 260.185H122.721C123.786 265.818 125.599 271.284 128.115 276.438L128.488 277.202L119.669 277.202V282.296C117.905 281.912 116.132 281.532 114.351 281.158V277.202L105 277.202L105.373 276.438C107.888 271.284 109.702 265.818 110.767 260.185H107.172L107.739 259.324C109.674 256.387 111.045 253.116 111.783 249.682H109.605L110.12 248.786C112.001 245.511 113.593 242.083 114.881 238.541L116.744 232Z" fill="#22224A"/>
<path fill-rule="evenodd" clip-rule="evenodd" d="M155.68 291.139C155.283 290.01 154.957 288.856 154.704 287.682H156.882L156.368 286.786C154.487 283.511 152.894 280.083 151.607 276.541L149.744 270L147.881 276.54C146.593 280.083 145.001 283.511 143.12 286.786L142.605 287.682H144.783C144.745 287.859 144.706 288.035 144.664 288.211C148.384 289.165 152.057 290.141 155.68 291.139Z" fill="#22224A"/>
<defs>
<filter id="filter0_d_159_641" x="236" y="66" width="86" height="110" filterUnits="userSpaceOnUse" color-interpolation-filters="sRGB">
<feFlood flood-opacity="0" result="BackgroundImageFix"/>
<feColorMatrix in="SourceAlpha" type="matrix" values="0 0 0 0 0 0 0 0 0 0 0 0 0 0 0 0 0 0 127 0" result="hardAlpha"/>
<feOffset/>
<feGaussianBlur stdDeviation="10"/>
<feComposite in2="hardAlpha" operator="out"/>
<feColorMatrix type="matrix" values="0 0 0 0 1 0 0 0 0 0.901961 0 0 0 0 0.85098 0 0 0 1 0"/>
<feBlend mode="normal" in2="BackgroundImageFix" result="effect1_dropShadow_159_641"/>
<feBlend mode="normal" in="SourceGraphic" in2="effect1_dropShadow_159_641" result="shape"/>
</filter>
<linearGradient id="paint0_linear_159_641" x1="195" y1="0" x2="195" y2="390" gradientUnits="userSpaceOnUse">
<stop stop-color="#352968"/>
<stop offset="0.67607" stop-color="#A4E5F4"/>
</linearGradient>
<linearGradient id="paint1_linear_159_641" x1="195" y1="235" x2="195" y2="344" gradientUnits="userSpaceOnUse">
<stop stop-color="#66B4DF"/>
<stop offset="0.53409" stop-color="#6171AE"/>
<stop offset="1" stop-color="#6285AF"/>
</linearGradient>
<linearGradient id="paint2_linear_159_641" x1="115" y1="97.5" x2="36" y2="235" gradientUnits="userSpaceOnUse">
<stop stop-color="#3E5A90"/>
<stop offset="1" stop-color="#3E5A90" stop-opacity="0"/>
</linearGradient>
<linearGradient id="paint3_linear_159_641" x1="115" y1="256.747" x2="112.393" y2="228.058" gradientUnits="userSpaceOnUse">
<stop stop-color="#4C699B"/>
<stop offset="1" stop-color="#81B0CD"/>
</linearGradient>
<linearGradient id="paint4_linear_159_641" x1="296.479" y1="215.457" x2="452.72" y2="345.493" gradientUnits="userSpaceOnUse">
<stop stop-color="#373C77"/>
<stop offset="0.619371" stop-color="#7A8BC5"/>
</linearGradient>
<linearGradient id="paint5_linear_159_641" x1="61.5" y1="171" x2="-3.55687e-06" y2="235" gradientUnits="userSpaceOnUse">
<stop stop-color="#193564"/>
<stop offset="1" stop-color="#588FB8"/>
</linearGradient>
<linearGradient id="paint6_linear_159_641" x1="54.5" y1="242.172" x2="51.4583" y2="220.033" gradientUnits="userSpaceOnUse">
<stop stop-color="#2D527F"/>
<stop offset="1" stop-color="#568BB4"/>
</linearGradient>
<linearGradient id="paint7_linear_159_641" x1="322" y1="236.5" x2="336" y2="390" gradientUnits="userSpaceOnUse">
<stop stop-color="#1F1F45"/>
<stop offset="1" stop-color="#4C4C86"/>
</linearGradient>
<linearGradient id="paint8_linear_159_641" x1="151" y1="293" x2="152.552" y2="389.323" gradientUnits="userSpaceOnUse">
<stop stop-color="#22224A"/>
<stop offset="1" stop-color="#4C4C86"/>
</linearGradient>
</defs>
</svg>
