<svg width="12" height="29" viewBox="0 0 12 29" fill="none" xmlns="http://www.w3.org/2000/svg">
<path fill-rule="evenodd" clip-rule="evenodd" d="M9.34208 1.72325C9.34208 2.18491 7.70287 2.55963 5.67414 2.56359H6.21643L6.21643 10.9996C8.49974 11.2567 10.267 13.0255 10.267 15.1693C10.267 15.7669 10.1297 16.3353 9.88215 16.85H1.40088C1.15332 16.3353 1.01599 15.7669 1.01599 15.1693C1.01599 13.1364 2.60511 11.4408 4.71643 11.0515L4.71643 2.56359H5.60917C3.58045 2.55963 1.94124 2.18491 1.94124 1.72325C1.94124 1.25912 3.59797 0.882874 5.64166 0.882874C7.68534 0.882874 9.34208 1.25912 9.34208 1.72325Z" fill="white"/>
<path fill-rule="evenodd" clip-rule="evenodd" d="M9.34193 1.72325C9.34193 2.18737 7.6852 2.56362 5.64152 2.56362C3.59783 2.56362 1.9411 2.18737 1.9411 1.72325C1.9411 1.25912 3.59783 0.882874 5.64152 0.882874C7.6852 0.882874 9.34193 1.25912 9.34193 1.72325ZM6.10407 10.9881L6.10407 2.56362H5.64152H4.71641L4.71641 11.0514C2.6051 11.4407 1.01599 13.1364 1.01599 15.1692C1.01599 15.7668 1.15332 16.3353 1.40088 16.85H9.88216C10.1297 16.3353 10.267 15.7668 10.267 15.1692C10.267 12.9904 8.44149 11.1989 6.10407 10.9881Z" fill="white"/>
<path d="M2.86626 16.85H8.41689L11.1922 28.6152H0.0909424L2.86626 16.85Z" fill="url(#paint0_linear_213_1026)" fill-opacity="0.6"/>
<defs>
<linearGradient id="paint0_linear_213_1026" x1="5.64157" y1="16.85" x2="5.64157" y2="28.6152" gradientUnits="userSpaceOnUse">
<stop stop-color="white"/>
<stop offset="1" stop-color="#FDDBE9" stop-opacity="0"/>
</linearGradient>
</defs>
</svg>
