<svg width="11" height="21" viewBox="0 0 11 21" fill="none" xmlns="http://www.w3.org/2000/svg">
<path fill-rule="evenodd" clip-rule="evenodd" d="M1.50031 3.5C1.50031 1.84315 2.84345 0.5 4.50031 0.5C6.15716 0.5 7.50031 1.84315 7.50031 3.5V4.5V14C7.50031 14.0425 7.49499 14.0839 7.48499 14.1233C7.84824 14.544 8.12451 15.0362 8.2929 15.5697C8.5437 16.3643 8.54258 17.2106 8.28969 17.9895C8.03679 18.7683 7.54489 19.4405 6.88327 19.9111C6.22165 20.3818 5.42369 20.6273 4.6018 20.613C3.77992 20.5987 2.97555 20.3254 2.30204 19.8315C1.62853 19.3376 1.11982 18.6481 0.847603 17.8601C0.575384 17.0721 0.553375 16.2254 0.784676 15.4392C0.93246 14.9368 1.17889 14.4754 1.50659 14.0801C1.50239 14.054 1.50021 14.0273 1.50021 14V4L1.50031 3.99009V3.5ZM2.50021 14V4.5H2.50031V3.5C2.50031 2.39543 3.39574 1.5 4.50031 1.5C5.60488 1.5 6.50031 2.39543 6.50031 3.5V4.5V14C6.50031 14.1405 6.55823 14.2674 6.6515 14.3582C6.66929 14.3853 6.69011 14.4108 6.71379 14.4341C7.09622 14.8098 7.38296 15.2751 7.54494 15.7883C7.74558 16.424 7.74468 17.1011 7.54237 17.7242C7.34005 18.3473 6.94652 18.885 6.41723 19.2615C5.88794 19.638 5.24957 19.8344 4.59206 19.823C3.93455 19.8115 3.29106 19.5929 2.75225 19.1978C2.21344 18.8027 1.80647 18.2511 1.5887 17.6207C1.37092 16.9903 1.35332 16.3129 1.53836 15.6839C1.68005 15.2023 1.9351 14.7677 2.27957 14.4147C2.41268 14.3249 2.50021 14.1727 2.50021 14ZM4.5 9C3.94772 9 3.5 9.44771 3.5 10V14.616C2.72832 15.0127 2.2 15.8202 2.2 16.7518C2.2 18.0756 3.26678 19.1488 4.58272 19.1488C5.89866 19.1488 6.96544 18.0756 6.96544 16.7518C6.96544 15.755 6.36061 14.9003 5.5 14.5389V10C5.5 9.44772 5.05228 9 4.5 9ZM8.27727 13.0128C8.00113 13.0128 7.77727 13.2367 7.77727 13.5128C7.77727 13.789 8.00113 14.0128 8.27727 14.0128H10.0004C10.2765 14.0128 10.5004 13.789 10.5004 13.5128C10.5004 13.2367 10.2765 13.0128 10.0004 13.0128H8.27727ZM7.77727 12.1422C7.77727 11.8661 8.00113 11.6422 8.27727 11.6422H8.63882C8.91496 11.6422 9.13882 11.8661 9.13882 12.1422C9.13882 12.4184 8.91496 12.6422 8.63882 12.6422H8.27727C8.00113 12.6422 7.77727 12.4184 7.77727 12.1422ZM8.27727 10.2726C8.00113 10.2726 7.77727 10.4965 7.77727 10.7726C7.77727 11.0488 8.00113 11.2726 8.27727 11.2726H10.0004C10.2765 11.2726 10.5004 11.0488 10.5004 10.7726C10.5004 10.4965 10.2765 10.2726 10.0004 10.2726H8.27727ZM7.77727 9.40277C7.77727 9.12663 8.00113 8.90277 8.27727 8.90277H8.63882C8.91496 8.90277 9.13882 9.12663 9.13882 9.40277C9.13882 9.67891 8.91496 9.90277 8.63882 9.90277H8.27727C8.00113 9.90277 7.77727 9.67891 7.77727 9.40277ZM8.27727 7.53314C8.00113 7.53314 7.77727 7.757 7.77727 8.03314C7.77727 8.30928 8.00113 8.53314 8.27727 8.53314H10.0004C10.2765 8.53314 10.5004 8.30928 10.5004 8.03314C10.5004 7.757 10.2765 7.53314 10.0004 7.53314H8.27727ZM7.77727 6.66357C7.77727 6.38743 8.00113 6.16357 8.27727 6.16357H8.63882C8.91496 6.16357 9.13882 6.38743 9.13882 6.66357C9.13882 6.93972 8.91496 7.16357 8.63882 7.16357H8.27727C8.00113 7.16357 7.77727 6.93972 7.77727 6.66357ZM8.27727 4.7937C8.00113 4.7937 7.77727 5.01756 7.77727 5.2937C7.77727 5.56984 8.00113 5.7937 8.27727 5.7937H10.0004C10.2765 5.7937 10.5004 5.56984 10.5004 5.2937C10.5004 5.01756 10.2765 4.7937 10.0004 4.7937H8.27727ZM7.77727 3.92407C7.77727 3.64793 8.00113 3.42407 8.27727 3.42407H8.63882C8.91496 3.42407 9.13882 3.64793 9.13882 3.92407C9.13882 4.20021 8.91496 4.42407 8.63882 4.42407H8.27727C8.00113 4.42407 7.77727 4.20021 7.77727 3.92407ZM8.27727 2.05457C8.00113 2.05457 7.77727 2.27842 7.77727 2.55457C7.77727 2.83071 8.00113 3.05457 8.27727 3.05457H10.0004C10.2765 3.05457 10.5004 2.83071 10.5004 2.55457C10.5004 2.27842 10.2765 2.05457 10.0004 2.05457H8.27727Z" fill="white"/>
</svg>
